<mxfile host="app.diagrams.net" modified="2023-04-07T02:31:05.496Z" agent="Mozilla/5.0 (Macintosh; Intel Mac OS X 10.15; rv:109.0) Gecko/20100101 Firefox/111.0" version="21.1.5" etag="CdieCRrvLzJ86K0RfXVs" type="github">
  <diagram name="第 1 页" id="XVQMAl3trEaI5KZcZxPg">
    <mxGraphModel>
      <root>
        <mxCell id="0" />
        <mxCell id="1" parent="0" />
      </root>
    </mxGraphModel>
  </diagram>
</mxfile>
